<svg width="512" height="137" xmlns="http://www.w3.org/2000/svg">

 <g>
  <title>background</title>
  <rect fill="none" id="canvas_background" height="139" width="514" y="-1" x="-1"/>
 </g>
 <g>
  <title>Layer 1</title>
  <polygon fill-opacity="0.2" fill="#999999" id="svg_2" points="223.89998745918274,0.10351324081420898 214.099999666214,0.10351324081420898 77.09999966621399,137.1035132408142 86.9000027179718,137.1035132408142 " class="st0"/>
  <polygon fill-opacity="0.2" fill="#999999" id="svg_3" points="174.89998745918274,0.10351324081420898 162.099999666214,0.10351324081420898 25.09999966621399,137.1035132408142 37.9000027179718,137.1035132408142 " class="st0"/>
  <polygon fill-opacity="0.2" fill="#999999" id="svg_4" points="199.89998745918274,0.10351324081420898 189.099999666214,0.10351324081420898 52.09999966621399,137.1035132408142 62.9000027179718,137.1035132408142 " class="st0"/>
  <polygon fill-opacity="0.2" fill="#999999" id="svg_5" points="274.9000027179718,0.10351324081420898 263.10001492500305,0.10351324081420898 126.09999966621399,137.1035132408142 137.89998745918274,137.1035132408142 " class="st0"/>
  <polygon fill-opacity="0.2" fill="#999999" id="svg_6" points="299.9000027179718,0.10351324081420898 289.10001492500305,0.10351324081420898 152.099999666214,137.1035132408142 162.89998745918274,137.1035132408142 " class="st0"/>
  <polygon fill-opacity="0.2" fill="#999999" id="svg_7" points="248.89998745918274,0.10351324081420898 238.099999666214,0.10351324081420898 101.09999966621399,137.1035132408142 111.9000027179718,137.1035132408142 " class="st0"/>
  <polygon fill-opacity="0.2" fill="#999999" id="svg_8" points="122.9000027179718,0.10351324081420898 111.09999966621399,0.10351324081420898 0,111.20351934432983 0,123.00350713729858 " class="st0"/>
  <polygon fill-opacity="0.2" fill="#999999" id="svg_9" points="43.9000027179718,0.10351324081420898 33.09999966621399,0.10351324081420898 0,33.203519344329834 0,44.003507137298584 " class="st0"/>
  <polygon fill-opacity="0.2" fill="#999999" id="svg_10" points="71.9000027179718,0.10351324081420898 58.09999966621399,0.10351324081420898 0,58.203519344329834 0,72.00350713729858 " class="st0"/>
  <polygon fill-opacity="0.2" fill="#999999" id="svg_11" points="18.899998903274536,0.10351324081420898 7.099999666213989,0.10351324081420898 0,7.203519344329834 0,19.003507137298584 " class="st0"/>
  <polygon fill-opacity="0.2" fill="#999999" id="svg_12" points="323.9000027179718,0.10351324081420898 314.10001492500305,0.10351324081420898 177.099999666214,137.1035132408142 186.89998745918274,137.1035132408142 " class="st0"/>
  <polygon fill-opacity="0.2" fill="#999999" id="svg_13" points="96.9000027179718,0.10351324081420898 86.09999966621399,0.10351324081420898 0,86.20351934432983 0,97.00350713729858 " class="st0"/>
  <polygon fill-opacity="0.2" fill="#999999" id="svg_14" points="147.89998745918274,0.10351324081420898 137.099999666214,0.10351324081420898 0.09999996423721313,137.1035132408142 10.899999856948853,137.1035132408142 " class="st0"/>
  <polygon fill-opacity="0.2" fill="#999999" id="svg_15" points="421.9000027179718,0.10351324081420898 412.10001492500305,0.10351324081420898 275.10001492500305,137.1035132408142 284.9000027179718,137.1035132408142 " class="st0"/>
  <polygon fill-opacity="0.2" fill="#999999" id="svg_16" points="512.0000088214874,62.003507137298584 512.0000088214874,51.203519344329834 426.10001492500305,137.1035132408142 436.9000027179718,137.1035132408142 " class="st0"/>
  <polygon fill-opacity="0.2" fill="#999999" id="svg_17" points="512.0000088214874,37.003507137298584 512.0000088214874,26.203519344329834 401.10001492500305,137.1035132408142 411.9000027179718,137.1035132408142 " class="st0"/>
  <polygon fill-opacity="0.2" fill="#999999" id="svg_18" points="348.9000027179718,0.10351324081420898 338.10001492500305,0.10351324081420898 201.099999666214,137.1035132408142 211.89998745918274,137.1035132408142 " class="st0"/>
  <polygon fill-opacity="0.2" fill="#999999" id="svg_19" points="512.0000088214874,113.00350713729858 512.0000088214874,102.20351934432983 477.10001492500305,137.1035132408142 487.9000027179718,137.1035132408142 " class="st0"/>
  <polygon fill-opacity="0.2" fill="#999999" id="svg_20" points="512.0000088214874,12.003507137298584 512.0000088214874,0.20351934432983398 375.10001492500305,137.1035132408142 386.9000027179718,137.1035132408142 " class="st0"/>
  <polygon fill-opacity="0.2" fill="#999999" id="svg_21" points="502.10001492500305,137.1035132408142 512.0000088214874,137.1035132408142 512.0000088214874,127.20351934432983 " class="st0"/>
  <polygon fill-opacity="0.2" fill="#999999" id="svg_22" points="512.0000088214874,88.00350713729858 512.0000088214874,76.20351934432983 451.10001492500305,137.1035132408142 462.9000027179718,137.1035132408142 " class="st0"/>
  <polygon fill-opacity="0.2" fill="#999999" id="svg_23" points="397.9000027179718,0.10351324081420898 387.10001492500305,0.10351324081420898 250.099999666214,137.1035132408142 260.9000027179718,137.1035132408142 " class="st0"/>
  <polygon fill-opacity="0.2" fill="#999999" id="svg_24" points="372.9000027179718,0.10351324081420898 363.10001492500305,0.10351324081420898 226.099999666214,137.1035132408142 235.89998745918274,137.1035132408142 " class="st0"/>
  <polygon fill-opacity="0.2" fill="#999999" id="svg_25" points="472.9000027179718,0.10351324081420898 461.10001492500305,0.10351324081420898 324.10001492500305,137.1035132408142 335.9000027179718,137.1035132408142 " class="st0"/>
  <polygon fill-opacity="0.2" fill="#999999" id="svg_26" points="446.9000027179718,0.10351324081420898 436.10001492500305,0.10351324081420898 299.10001492500305,137.1035132408142 309.9000027179718,137.1035132408142 " class="st0"/>
  <polygon fill-opacity="0.2" fill="#999999" id="svg_27" points="497.9000027179718,0.10351324081420898 487.10001492500305,0.10351324081420898 350.10001492500305,137.1035132408142 360.9000027179718,137.1035132408142 " class="st0"/>
 </g>
</svg>