<svg width="368" height="446" xmlns="http://www.w3.org/2000/svg">

 <g>
  <title>background</title>
  <rect fill="none" id="canvas_background" height="448" width="370" y="-1" x="-1"/>
 </g>
 <g>
  <title>Layer 1</title>
  <path id="svg_1" fill-rule="evenodd" fill="#ffffff" d="m347.593306,317.511392c-26.346,-34.434 -60.324,-52.243 -117.74,-57.963c-10.363,-2.086 -18.174,-11.268 -18.174,-22.173c0,-7.985 25.616,-31.889 25.433,-32.066c26.44,-27.345 40.615,-71.778 40.615,-105.938c0,-53.057 -42.702,-96.124 -95.396,-96.124c-52.694,0 -95.398,43.067 -95.398,96.124c0,34.346 13.811,79.045 40.523,106.391c0,0 25.529,23.629 25.529,31.614c0,11.543 -8.721,21.168 -19.989,22.536c-56.24,5.906 -89.852,23.617 -115.93,57.6c-7.541,9.812 -11.631,29.527 -11.902,40.07c0.09,2.725 0,45.427 0,45.427c0,20.078 16.264,36.34 36.343,36.34l281.648,0c20.078,0 36.345,-16.262 36.345,-36.34c0,0 -0.089,-42.702 0,-45.427c-0.269,-10.544 -4.369,-30.26 -11.907,-40.071z" clip-rule="evenodd"/>
 </g>
</svg>