<svg width="1296" height="1428" xmlns="http://www.w3.org/2000/svg">

 <g>
  <title>background</title>
  <rect fill="none" id="canvas_background" height="1430" width="1298" y="-1" x="-1"/>
 </g>
 <g>
  <title>Layer 1</title>
  <path id="svg_1" d="m1050.656891,446.975555q0,-100 -65,-162t-171,-62l-320,0l0,448l320,0q106,0 171,-62t65,-162zm237,0q0,193 -126.5,315t-326.5,122l-340,0l0,118l505,0q14,0 23,9t9,23l0,128q0,14 -9,23t-23,9l-505,0l0,192q0,14 -9.5,23t-22.5,9l-167,0q-14,0 -23,-9t-9,-23l0,-192l-224,0q-14,0 -23,-9t-9,-23l0,-128q0,-14 9,-23t23,-9l224,0l0,-118l-224,0q-14,0 -23,-9t-9,-23l0,-149q0,-13 9,-22.5t23,-9.5l224,0l0,-629q0,-14 9,-23t23,-9l539,0q200,0 326.5,122t126.5,315z"/>
 </g>
</svg>