<svg width="13" height="18" xmlns="http://www.w3.org/2000/svg">

 <g>
  <title>background</title>
  <rect fill="none" id="canvas_background" height="20" width="15" y="-1" x="-1"/>
 </g>
 <g>
  <title>Layer 1</title>
  <path id="svg_1" d="m11.522534,5.552796c0,-1.381 -0.56,-2.631 -1.464,-3.535c-0.905,-0.905 -2.155,-1.465 -3.536,-1.465s-2.631,0.56 -3.536,1.465c-0.904,0.904 -1.464,2.154 -1.464,3.535s0.56,2.631 1.464,3.535c0.905,0.905 2.155,1.465 3.536,1.465s2.631,-0.56 3.536,-1.465c0.904,-0.904 1.464,-2.154 1.464,-3.535z"/>
  <path id="svg_2" d="m0.522534,15.552796c0,1 2.25,2 6,2c3.518,0 6,-1 6,-2c0,-2 -2.354,-4 -6,-4c-3.75,0 -6,2 -6,4z"/>
 </g>
</svg>