<svg width="23" height="26" xmlns="http://www.w3.org/2000/svg">

 <g>
  <title>background</title>
  <rect fill="none" id="canvas_background" height="28" width="25" y="-1" x="-1"/>
 </g>
 <g>
  <title>Layer 1</title>
  <path id="svg_1" fill="none" stroke="#000000" stroke-width="2" stroke-linecap="round" stroke-linejoin="round" stroke-miterlimit="10" d="m17.501099,10.312295l-12,0l0,-3c0,-3.314 2.686,-6 6,-6l0,0c3.314,0 6,2.686 6,6l0,3z"/>
  <path id="svg_2" d="m20.501099,9.312295l-18,0c-1.105,0 -2,0.895 -2,2l0,12c0,1.105 0.895,2 2,2l18,0c1.105,0 2,-0.895 2,-2l0,-12c0,-1.105 -0.895,-2 -2,-2zm-9,10c-1.105,0 -2,-0.896 -2,-2c0,-1.105 0.895,-2 2,-2s2,0.895 2,2c0,1.104 -0.895,2 -2,2zm6,0c-1.105,0 -2,-0.896 -2,-2c0,-1.105 0.895,-2 2,-2s2,0.895 2,2c0,1.104 -0.895,2 -2,2zm-12,0c-1.105,0 -2,-0.896 -2,-2c0,-1.105 0.895,-2 2,-2s2,0.895 2,2c0,1.104 -0.895,2 -2,2z"/>
 </g>
</svg>