<svg width="24" height="24" xmlns="http://www.w3.org/2000/svg">

 <g>
  <title>background</title>
  <rect fill="none" id="canvas_background" height="26" width="26" y="-1" x="-1"/>
 </g>
 <g>
  <title>Layer 1</title>
  <path id="svg_1" d="m6.87157,0.789243l-4,0c-1.105,0 -2,0.895 -2,2l0,4c0,1.105 0.895,2 2,2l4,0c1.105,0 2,-0.895 2,-2l0,-4c0,-1.105 -0.895,-2 -2,-2zm0,6l-4,0l0,-4l4,0l0,4zm-1,-1l-2,0l0,-2l2,0l0,2z"/>
  <path id="svg_2" d="m6.87157,14.789243l-4,0c-1.105,0 -2,0.895 -2,2l0,4c0,1.105 0.895,2 2,2l4,0c1.105,0 2,-0.895 2,-2l0,-4c0,-1.105 -0.895,-2 -2,-2zm0,6l-4,0l0,-4l4,0l0,4zm-1,-1l-2,0l0,-2l2,0l0,2z"/>
  <path id="svg_3" d="m20.87157,0.789243l-4,0c-1.105,0 -2,0.895 -2,2l0,4c0,1.105 0.895,2 2,2l4,0c1.105,0 2,-0.895 2,-2l0,-4c0,-1.105 -0.895,-2 -2,-2zm0,6l-4,0l0,-4l4,0l0,4zm-1,-1l-2,0l0,-2l2,0l0,2z"/>
  <rect id="svg_4" y="2.789243" x="10.87157" width="2" height="2"/>
  <rect id="svg_5" y="6.789243" x="10.87157" width="2" height="2"/>
  <rect id="svg_6" y="10.789243" x="10.87157" width="2" height="2"/>
  <rect id="svg_7" y="10.789243" x="6.87157" width="2" height="2"/>
  <rect id="svg_8" y="10.171789" x="2.171789" width="2" height="2"/>
  <rect id="svg_9" y="10.789243" x="14.87157" width="2" height="2"/>
  <rect id="svg_10" y="10.789243" x="18.87157" width="2" height="2"/>
  <rect id="svg_11" y="12.789243" x="12.87157" width="2" height="2"/>
  <rect id="svg_12" y="12.789243" x="16.87157" width="2" height="2"/>
  <rect id="svg_13" y="14.789243" x="14.87157" width="2" height="2"/>
  <rect id="svg_14" y="14.789243" x="10.87157" width="2" height="2"/>
  <rect id="svg_15" y="16.789243" x="12.87157" width="2" height="2"/>
  <rect id="svg_16" y="18.789243" x="14.87157" width="2" height="2"/>
  <rect id="svg_17" y="20.789243" x="12.87157" width="2" height="2"/>
  <rect id="svg_18" y="12.789243" x="20.87157" width="2" height="2"/>
  <rect id="svg_19" y="16.789243" x="20.87157" width="2" height="2"/>
  <rect id="svg_20" y="16.789243" x="16.87157" width="2" height="2"/>
  <rect id="svg_21" y="20.789243" x="16.87157" width="2" height="2"/>
  <rect id="svg_22" y="18.789243" x="18.87157" width="2" height="2"/>
  <rect id="svg_23" y="14.789243" x="18.87157" width="2" height="2"/>
  <rect id="svg_24" y="18.789243" x="10.87157" width="2" height="2"/>
 </g>
</svg>