<svg width="256" height="383.99999999999994" xmlns="http://www.w3.org/2000/svg">
 <g>
  <title>background</title>
  <rect x="-1" y="-1" width="258" height="386" id="canvas_background" fill="none"/>
 </g>

 <g>
  <title>Layer 1</title>
  <path d="m96,371.8l0,-359.7c0,-6.7 -5.4,-12.1 -12.2,-12.1l-71.6,0c-6.8,0 -12.2,5.4 -12.2,12.1l0,359.7c0,6.7 5.4,12.2 12.2,12.2l71.6,0c6.8,0 12.2,-5.4 12.2,-12.2z" id="svg_2" fill="#ffffff"/>
  <path d="m243.8,0l-71.6,0c-6.7,0 -12.2,5.4 -12.2,12.1l0,359.7c0,6.7 5.4,12.2 12.2,12.2l71.6,0c6.7,0 12.2,-5.4 12.2,-12.2l0,-359.7c0,-6.7 -5.4,-12.1 -12.2,-12.1z" id="svg_3" fill="#ffffff"/>
 </g>
</svg>